<svg width="16" height="16" viewBox="0 0 16 16" fill="none" xmlns="http://www.w3.org/2000/svg">
<g clip-path="url(#clip0_1641_47)">
<path d="M7.03125 10.5844C7.03125 10.8642 6.9625 11.1138 6.83875 11.3406C6.605 10.8944 6.165 10.5844 5.65625 10.5844C5.1475 10.5844 4.7075 10.8944 4.47375 11.3406C4.35688 11.1138 4.28125 10.8642 4.28125 10.5844C4.28125 9.7525 4.9 9.07188 5.65625 9.07188C6.4125 9.07188 7.03125 9.7525 7.03125 10.5844ZM15.625 10.2063V12.475C15.625 12.8909 15.3156 13.2313 14.9375 13.2313H14.25V13.9875C14.25 14.8269 13.6381 15.5 12.875 15.5H3.25C2.88533 15.5 2.53559 15.3406 2.27773 15.057C2.01987 14.7734 1.875 14.3886 1.875 13.9875V13.2313H1.1875C0.809375 13.2313 0.5 12.8909 0.5 12.475V10.2063C0.5 9.79031 0.809375 9.45 1.1875 9.45H1.875C1.875 6.52331 4.02688 4.15625 6.6875 4.15625H7.375V3.19581C6.9625 2.93869 6.6875 2.44713 6.6875 1.8875C6.6875 1.05563 7.30625 0.375 8.0625 0.375C8.81875 0.375 9.4375 1.05563 9.4375 1.8875C9.4375 2.44713 9.1625 2.93869 8.75 3.19581V4.15625H9.4375C12.0981 4.15625 14.25 6.52331 14.25 9.45H14.9375C15.3156 9.45 15.625 9.79031 15.625 10.2063ZM14.25 10.9625H12.875V9.45C12.875 7.36275 11.335 5.66875 9.4375 5.66875H6.6875C4.79 5.66875 3.25 7.36275 3.25 9.45V10.9625H1.875V11.7188H3.25V13.9875H12.875V11.7188H14.25V10.9625ZM10.4688 9.07188C9.7125 9.07188 9.09375 9.7525 9.09375 10.5844C9.09375 10.8642 9.16937 11.1138 9.28625 11.3406C9.52 10.8944 9.96 10.5844 10.4688 10.5844C10.9775 10.5844 11.4175 10.8944 11.6512 11.3406C11.775 11.1138 11.8438 10.8642 11.8438 10.5844C11.8438 10.1832 11.6989 9.79853 11.441 9.51488C11.1832 9.23123 10.8334 9.07188 10.4688 9.07188Z" fill="black"/>
</g>
<defs>
<clipPath id="clip0_1641_47">
<rect width="16" height="16" fill="white"/>
</clipPath>
</defs>
</svg>
